<svg width="29" height="28" viewBox="0 0 29 28" fill="none" xmlns="http://www.w3.org/2000/svg">
<path d="M10.125 6.20834C9.92281 6.20834 9.75 6.03553 9.75 5.83334V2.33334C9.75 2.13115 9.92281 1.95834 10.125 1.95834C10.3272 1.95834 10.5 2.13115 10.5 2.33334V5.83334C10.5 6.03553 10.3272 6.20834 10.125 6.20834Z" fill="white" stroke="white"/>
<path d="M18.875 6.20834C18.6728 6.20834 18.5 6.03553 18.5 5.83334V2.33334C18.5 2.13115 18.6728 1.95834 18.875 1.95834C19.0772 1.95834 19.25 2.13115 19.25 2.33334V5.83334C19.25 6.03553 19.0772 6.20834 18.875 6.20834Z" fill="white" stroke="white"/>
<path d="M15.0502 15.505C15.0502 15.652 14.9978 15.7453 14.9251 15.8083C14.8456 15.8772 14.7066 15.9383 14.5002 15.9383C14.2938 15.9383 14.1548 15.8772 14.0753 15.8083C14.0026 15.7453 13.9502 15.652 13.9502 15.505C13.9502 15.3508 14.0034 15.2639 14.0701 15.2076C14.1465 15.1431 14.2857 15.0833 14.5002 15.0833C14.7147 15.0833 14.8538 15.1431 14.9303 15.2076C14.997 15.2639 15.0502 15.3508 15.0502 15.505Z" fill="white" stroke="white"/>
<path d="M14.4999 19.8333C15.2345 19.8333 15.8299 19.3476 15.8299 18.7483C15.8299 18.1491 15.2345 17.6633 14.4999 17.6633C13.7654 17.6633 13.1699 18.1491 13.1699 18.7483C13.1699 19.3476 13.7654 19.8333 14.4999 19.8333Z" fill="white"/>
<path d="M23.3315 5.25001C22.5615 4.67834 21.4532 5.22668 21.4532 6.19501V6.31168C21.4532 7.67668 20.4732 8.93668 19.1082 9.07668C17.5332 9.24001 16.2032 8.00334 16.2032 6.46334V5.25001C16.2032 4.60834 15.6782 4.08334 15.0365 4.08334H13.9632C13.3215 4.08334 12.7965 4.60834 12.7965 5.25001V6.46334C12.7965 7.38501 12.3182 8.20168 11.5948 8.65668C11.4898 8.72668 11.3732 8.78501 11.2565 8.84334C11.1515 8.90168 11.0348 8.94834 10.9065 8.98334C10.7665 9.03001 10.6148 9.06501 10.4515 9.07668C10.2648 9.10001 10.0782 9.10001 9.8915 9.07668C9.72817 9.06501 9.5765 9.03001 9.4365 8.98334C9.31984 8.94834 9.20317 8.90168 9.0865 8.84334C8.96984 8.78501 8.85317 8.72668 8.74817 8.65668C8.01317 8.14334 7.5465 7.25668 7.5465 6.31168V6.19501C7.5465 5.29668 6.58984 4.76001 5.8315 5.14501C5.81984 5.15668 5.80817 5.15668 5.7965 5.16834C5.74984 5.19168 5.71484 5.21501 5.66817 5.25001C5.63317 5.28501 5.5865 5.30834 5.5515 5.34334C5.22484 5.60001 4.93317 5.89168 4.68817 6.20668C4.55984 6.34668 4.45484 6.49834 4.3615 6.65001C4.34984 6.66168 4.33817 6.67334 4.3265 6.69668C4.2215 6.84834 4.12817 7.02334 4.0465 7.18668C4.02317 7.21001 4.0115 7.22168 4.0115 7.24501C3.9415 7.38501 3.8715 7.52501 3.82484 7.67668C3.78984 7.73501 3.77817 7.78168 3.75484 7.84001C3.68484 8.01501 3.63817 8.19001 3.5915 8.36501C3.54484 8.52834 3.50984 8.70334 3.4865 8.87834C3.46317 9.00668 3.4515 9.13501 3.43984 9.27501C3.42817 9.43834 3.4165 9.60168 3.4165 9.76501V19.985C3.4165 23.1233 5.95984 25.6667 9.09817 25.6667H19.9015C23.0398 25.6667 25.5832 23.1233 25.5832 19.985V9.76501C25.5832 7.91001 24.6965 6.28834 23.3315 5.25001ZM14.4998 21.2917C12.6915 21.2917 11.5832 20.3933 11.5832 18.9467C11.5832 18.1533 11.9915 17.465 12.7032 17.0567C12.1898 16.695 11.8515 16.1583 11.8515 15.4233C11.8515 13.9067 13.0648 13.125 14.4998 13.125C15.9348 13.125 17.1365 13.9067 17.1365 15.4233C17.1365 16.1583 16.8098 16.695 16.2848 17.0567C17.0082 17.465 17.4165 18.1533 17.4165 18.9467C17.4165 20.3933 16.2965 21.2917 14.4998 21.2917Z" fill="white"/>
</svg>
