<svg width="31" height="30" viewBox="0 0 31 30" fill="none" xmlns="http://www.w3.org/2000/svg">
<path d="M22.2252 12.975V17.0125C22.2252 20.375 20.8752 21.725 17.5127 21.725H13.4752C10.1127 21.725 8.7627 20.375 8.7627 17.0125V12.975C8.7627 9.61248 10.1127 8.26245 13.4752 8.26245H17.5127C20.8877 8.27495 22.2252 9.61248 22.2252 12.975Z" stroke="white" stroke-width="1.5" stroke-linecap="round" stroke-linejoin="round"/>
<path d="M28.0001 7.21249V11.25C28.0001 14.6125 26.6501 15.9625 23.2876 15.9625H22.2251V12.9875C22.2251 9.62502 20.8751 8.27499 17.5126 8.27499H14.5376V7.21249C14.5376 3.84999 15.8876 2.5 19.2501 2.5H23.2876C26.6501 2.5 28.0001 3.84999 28.0001 7.21249Z" stroke="white" stroke-width="1.5" stroke-linecap="round" stroke-linejoin="round"/>
<path d="M3 22.7875V18.75C3 15.3875 4.35 14.0375 7.7125 14.0375H8.775V17.0125C8.775 20.375 10.125 21.725 13.4875 21.725H16.4625V22.7875C16.4625 26.15 15.1125 27.5 11.75 27.5H7.7125C4.35 27.5 3 26.15 3 22.7875Z" stroke="white" stroke-width="1.5" stroke-linecap="round" stroke-linejoin="round"/>
</svg>
