<svg width="29" height="28" viewBox="0 0 29 28" fill="none" xmlns="http://www.w3.org/2000/svg">
<path d="M25 26.0417H4C3.79781 26.0417 3.625 25.8688 3.625 25.6667C3.625 25.4645 3.79781 25.2917 4 25.2917H25C25.2022 25.2917 25.375 25.4645 25.375 25.6667C25.375 25.8688 25.2022 26.0417 25 26.0417Z" fill="white" stroke="white"/>
<path d="M5.16667 10.2767H7.03333C7.40213 10.2767 7.7 10.5694 7.7 10.9433V21C7.7 21.3655 7.39886 21.6667 7.03333 21.6667H5.16667C4.80114 21.6667 4.5 21.3655 4.5 21V10.9433C4.5 10.5778 4.80114 10.2767 5.16667 10.2767Z" fill="white" stroke="white"/>
<path d="M15.4332 6.05499H13.5666C12.9249 6.05499 12.3999 6.57999 12.3999 7.22166V21C12.3999 21.6417 12.9249 22.1667 13.5666 22.1667H15.4332C16.0749 22.1667 16.5999 21.6417 16.5999 21V7.22166C16.5999 6.57999 16.0749 6.05499 15.4332 6.05499Z" fill="white"/>
<path d="M23.8331 2.33334H21.9665C21.3248 2.33334 20.7998 2.85834 20.7998 3.50001V21C20.7998 21.6417 21.3248 22.1667 21.9665 22.1667H23.8331C24.4748 22.1667 24.9998 21.6417 24.9998 21V3.50001C24.9998 2.85834 24.4748 2.33334 23.8331 2.33334Z" fill="white"/>
</svg>
