<svg width="29" height="28" viewBox="0 0 29 28" fill="none" xmlns="http://www.w3.org/2000/svg">
<path d="M7.72693 11.443L7.727 11.4429L11.156 5.27297C11.1562 5.2727 11.1563 5.27243 11.1565 5.27216C11.4096 4.82101 11.683 4.42791 11.9645 4.09196C12.3452 3.65096 13.125 3.91429 13.125 4.55001V15.0733C13.125 15.2911 13.0213 15.4904 12.8357 15.621C12.8356 15.6211 12.8356 15.6211 12.8355 15.6211L4.4263 21.5111C4.42607 21.5112 4.42584 21.5114 4.42561 21.5116C4.01825 21.7939 3.46717 21.5579 3.38379 21.1101C3.23429 20.2492 3.42674 19.1878 4.08746 17.9871C4.08764 17.9868 4.08781 17.9864 4.08798 17.9861L7.72693 11.443Z" fill="white" stroke="white"/>
<path d="M21.273 11.4429L21.273 11.443L24.912 17.9861C24.9122 17.9865 24.9124 17.9869 24.9126 17.9872C25.5732 19.1879 25.7657 20.2492 25.6162 21.1102C25.5328 21.5579 24.9817 21.794 24.5743 21.5115C24.5741 21.5114 24.5739 21.5112 24.5737 21.5111L16.1644 15.6211C16.1643 15.6211 16.1643 15.621 16.1642 15.621C15.9787 15.4903 15.875 15.291 15.875 15.0733V4.55001C15.875 3.9143 16.6548 3.65097 17.0355 4.09195C17.317 4.42789 17.5903 4.82098 17.8434 5.27212C17.8436 5.2724 17.8438 5.27269 17.8439 5.27297L21.273 11.4429Z" fill="white" stroke="white"/>
<path d="M6.91288 22.7468L6.91406 22.746L14.0891 17.9627C14.1823 17.9005 14.3339 17.8542 14.5117 17.8542C14.6895 17.8542 14.8411 17.9005 14.9344 17.9627L22.1088 22.7456C22.5591 23.0468 22.8435 23.3121 22.9977 23.5227C23.0737 23.6266 23.1083 23.7038 23.1221 23.7537C23.1348 23.7994 23.1291 23.8162 23.1288 23.8168L23.1288 23.8168L23.1288 23.8168C23.1287 23.8174 23.1242 23.8346 23.0884 23.8654C23.0492 23.8991 22.9776 23.9441 22.8569 23.9881C22.6118 24.0775 22.2282 24.14 21.6867 24.14H7.32633C6.7886 24.1371 6.40762 24.0729 6.16429 23.9826C6.04428 23.938 5.97314 23.8928 5.93413 23.8589C5.89864 23.828 5.89389 23.8107 5.8936 23.8096L5.89359 23.8096L5.89358 23.8096C5.89325 23.8086 5.88772 23.7917 5.90035 23.7467C5.91426 23.6971 5.94876 23.6204 6.02466 23.5174C6.17869 23.3083 6.46273 23.0451 6.91288 22.7468Z" fill="white" stroke="white"/>
</svg>
