<svg width="29" height="28" viewBox="0 0 29 28" fill="none" xmlns="http://www.w3.org/2000/svg">
<path d="M24.7915 6.00834V9.15834C24.7915 10.2143 24.6226 10.7302 24.343 11.0098C24.0633 11.2894 23.5474 11.4583 22.4915 11.4583H19.3415C18.2856 11.4583 17.7697 11.2894 17.4901 11.0098C17.2104 10.7302 17.0415 10.2143 17.0415 9.15834V6.00834C17.0415 4.95241 17.2104 4.43653 17.4901 4.1569C17.7697 3.87726 18.2856 3.70834 19.3415 3.70834H22.4915C23.5474 3.70834 24.0633 3.87726 24.343 4.1569C24.6226 4.43653 24.7915 4.95241 24.7915 6.00834Z" fill="white" stroke="#292D32"/>
<path d="M11.9585 18.8417V21.9917C11.9585 23.0476 11.7896 23.5635 11.5099 23.8431C11.2303 24.1227 10.7144 24.2917 9.6585 24.2917H6.5085C5.45256 24.2917 4.93669 24.1227 4.65705 23.8431C4.37741 23.5635 4.2085 23.0476 4.2085 21.9917V18.8417C4.2085 17.7857 4.37741 17.2698 4.65705 16.9902C4.93669 16.7106 5.45256 16.5417 6.5085 16.5417H9.6585C10.7144 16.5417 11.2303 16.7106 11.5099 16.9902C11.7896 17.2698 11.9585 17.7857 11.9585 18.8417Z" fill="white" stroke="#292D32"/>
<path d="M19.4015 13.7083C19.6776 13.7083 19.9015 13.9322 19.9015 14.2083V15.89C19.9015 18.55 19.0498 19.4017 16.3898 19.4017H14.7081C14.432 19.4017 14.2081 19.1778 14.2081 18.9017V18.8417C14.2081 15.7383 12.7615 14.2917 9.65814 14.2917H9.59814C9.322 14.2917 9.09814 14.0678 9.09814 13.7917V12.11C9.09814 9.44999 9.94981 8.59833 12.6098 8.59833H14.2915C14.5676 8.59833 14.7915 8.82219 14.7915 9.09833V9.15833C14.7915 12.2617 16.2381 13.7083 19.3415 13.7083H19.4015Z" fill="white"/>
</svg>
